STARTFONT 2.1
FONT -HP-Sammul-Bold-R-Normal--16-160-75-75-C-80-KSC5636.1989-0
SIZE 16 75 75
FONTBOUNDINGBOX 8 16 0 -1

STARTPROPERTIES 23
FONTNAME_REGISTRY ""
FOUNDRY "HP"
FAMILY_NAME "Sammul"
WEIGHT_NAME "Bold"
SLANT "R"
SETWIDTH_NAME "Normal"
ADD_STYLE_NAME ""
PIXEL_SIZE 16
POINT_SIZE 160
RESOLUTION_X 75
RESOLUTION_Y 75
SPACING "C"
AVERAGE_WIDTH 80
CHARSET_REGISTRY "KSC5636.1989"
CHARSET_ENCODING "0"
COPYRIGHT "Copyright (c) 1994 Samsung Hewlett-Packard Company."
WEIGHT 145
X_HEIGHT 15
QUAD_WIDTH 8
_HP_ASXVERSION "@(#) ASX 3.00 $Revision: 13.9 $ samB16a"
DEFAULT_CHAR 32
FONT_DESCENT 1
FONT_ASCENT 15
ENDPROPERTIES

CHARS 256

STARTCHAR C000
ENCODING 0
SWIDTH 401 0
DWIDTH 8 0
BBX 8 16 0 -1
BITMAP
00
00
6C
6C
5C
6C
6C
00
1B
1B
1B
1B
0E
00
00
00
ENDCHAR

STARTCHAR C001
ENCODING 1
SWIDTH 401 0
DWIDTH 8 0
BBX 8 16 0 -1
BITMAP
00
00
3C
60
38
0C
78
00
1B
1B
1F
1B
1B
00
00
00
ENDCHAR

STARTCHAR C002
ENCODING 2
SWIDTH 401 0
DWIDTH 8 0
BBX 8 16 0 -1
BITMAP
00
00
3C
60
38
0C
78
00
33
16
0C
16
33
00
00
00
ENDCHAR

STARTCHAR C003
ENCODING 3
SWIDTH 401 0
DWIDTH 8 0
BBX 8 16 0 -1
BITMAP
00
00
7C
60
78
60
7C
00
33
16
0C
16
33
00
00
00
ENDCHAR

STARTCHAR C004
ENCODING 4
SWIDTH 401 0
DWIDTH 8 0
BBX 8 16 0 -1
BITMAP
00
00
7C
60
78
60
7C
00
3F
0C
0C
0C
0C
00
00
00
ENDCHAR

STARTCHAR C005
ENCODING 5
SWIDTH 401 0
DWIDTH 8 0
BBX 8 16 0 -1
BITMAP
00
00
7C
60
78
60
7C
00
1E
33
33
2B
1E
06
00
00
ENDCHAR

STARTCHAR C006
ENCODING 6
SWIDTH 401 0
DWIDTH 8 0
BBX 8 16 0 -1
BITMAP
00
00
38
6C
7C
6C
6C
00
1B
16
1C
16
1B
00
00
00
ENDCHAR

STARTCHAR C007
ENCODING 7
SWIDTH 401 0
DWIDTH 8 0
BBX 8 16 0 -1
BITMAP
00
00
00
3C
66
66
66
66
66
66
FF
18
00
00
00
00
ENDCHAR

STARTCHAR C010
ENCODING 8
SWIDTH 401 0
DWIDTH 8 0
BBX 8 16 0 -1
BITMAP
00
00
78
6C
78
6C
78
00
0F
18
0E
03
1E
00
00
00
ENDCHAR

STARTCHAR C011
ENCODING 9
SWIDTH 401 0
DWIDTH 8 0
BBX 8 16 0 -1
BITMAP
00
00
6C
6C
7C
6C
6C
00
3F
0C
0C
0C
0C
00
00
00
ENDCHAR

STARTCHAR C012
ENCODING 10
SWIDTH 401 0
DWIDTH 8 0
BBX 8 16 0 -1
BITMAP
00
00
60
60
60
60
7C
00
1F
18
1E
18
18
00
00
00
ENDCHAR

STARTCHAR C013
ENCODING 11
SWIDTH 401 0
DWIDTH 8 0
BBX 8 16 0 -1
BITMAP
00
00
66
66
2C
2C
18
00
3F
0C
0C
0C
0C
00
00
00
ENDCHAR

STARTCHAR C014
ENCODING 12
SWIDTH 401 0
DWIDTH 8 0
BBX 8 16 0 -1
BITMAP
00
00
7C
60
78
60
60
00
1F
18
1E
18
18
00
00
00
ENDCHAR

STARTCHAR C015
ENCODING 13
SWIDTH 401 0
DWIDTH 8 0
BBX 8 16 0 -1
BITMAP
00
00
3C
60
60
60
3C
00
1E
1B
1E
16
1B
00
00
00
ENDCHAR

STARTCHAR C016
ENCODING 14
SWIDTH 401 0
DWIDTH 8 0
BBX 8 16 0 -1
BITMAP
00
00
3C
60
38
0C
78
00
0E
1B
1B
1B
0E
00
00
00
ENDCHAR

STARTCHAR C017
ENCODING 15
SWIDTH 401 0
DWIDTH 8 0
BBX 8 16 0 -1
BITMAP
00
00
3C
60
38
0C
78
00
0F
06
06
06
0F
00
00
00
ENDCHAR

STARTCHAR C020
ENCODING 16
SWIDTH 401 0
DWIDTH 8 0
BBX 8 16 0 -1
BITMAP
00
00
78
6C
6C
6C
78
00
18
18
18
18
1F
00
00
00
ENDCHAR

STARTCHAR C021
ENCODING 17
SWIDTH 401 0
DWIDTH 8 0
BBX 8 16 0 -1
BITMAP
00
00
78
6C
6C
6C
78
00
06
0E
06
06
0F
00
00
00
ENDCHAR

STARTCHAR C022
ENCODING 18
SWIDTH 401 0
DWIDTH 8 0
BBX 8 16 0 -1
BITMAP
00
00
78
6C
6C
6C
78
0E
1B
03
0E
18
1F
00
00
00
ENDCHAR

STARTCHAR C023
ENCODING 19
SWIDTH 401 0
DWIDTH 8 0
BBX 8 16 0 -1
BITMAP
00
00
78
6C
6C
6C
78
00
1E
03
0E
03
1E
00
00
00
ENDCHAR

STARTCHAR C024
ENCODING 20
SWIDTH 401 0
DWIDTH 8 0
BBX 8 16 0 -1
BITMAP
00
00
78
6C
6C
6C
78
00
16
16
1F
06
06
00
00
00
ENDCHAR

STARTCHAR C025
ENCODING 21
SWIDTH 401 0
DWIDTH 8 0
BBX 8 16 0 -1
BITMAP
00
00
6C
6C
5C
6C
6C
00
1B
16
1C
16
1B
00
00
00
ENDCHAR

STARTCHAR C026
ENCODING 22
SWIDTH 401 0
DWIDTH 8 0
BBX 8 16 0 -1
BITMAP
00
00
3C
60
38
0C
78
00
33
16
0C
0C
0C
00
00
00
ENDCHAR

STARTCHAR C027
ENCODING 23
SWIDTH 401 0
DWIDTH 8 0
BBX 8 16 0 -1
BITMAP
00
00
7C
60
78
60
7C
00
1E
1B
1E
1B
1E
00
00
00
ENDCHAR

STARTCHAR C030
ENCODING 24
SWIDTH 401 0
DWIDTH 8 0
BBX 8 16 0 -1
BITMAP
00
00
3C
60
60
60
3C
00
1B
1B
17
1B
1B
00
00
00
ENDCHAR

STARTCHAR C031
ENCODING 25
SWIDTH 401 0
DWIDTH 8 0
BBX 8 16 0 -1
BITMAP
00
00
7C
60
78
60
7C
00
33
37
2B
33
33
00
00
00
ENDCHAR

STARTCHAR C032
ENCODING 26
SWIDTH 401 0
DWIDTH 8 0
BBX 8 16 0 -1
BITMAP
00
00
3C
60
38
0C
78
00
1E
1B
1E
1B
1E
00
00
00
ENDCHAR

STARTCHAR C033
ENCODING 27
SWIDTH 401 0
DWIDTH 8 0
BBX 8 16 0 -1
BITMAP
00
00
7C
60
78
60
7C
00
0F
18
18
18
0F
00
00
00
ENDCHAR

STARTCHAR C034
ENCODING 28
SWIDTH 401 0
DWIDTH 8 0
BBX 8 16 0 -1
BITMAP
00
00
7C
60
78
60
60
00
0F
18
0E
03
1E
00
00
00
ENDCHAR

STARTCHAR C035
ENCODING 29
SWIDTH 401 0
DWIDTH 8 0
BBX 8 16 0 -1
BITMAP
00
00
3C
60
5C
6C
3C
00
0F
18
0E
03
1E
00
00
00
ENDCHAR

STARTCHAR C036
ENCODING 30
SWIDTH 401 0
DWIDTH 8 0
BBX 8 16 0 -1
BITMAP
00
00
78
6C
78
58
6C
00
0F
18
0E
03
1E
00
00
00
ENDCHAR

STARTCHAR C037
ENCODING 31
SWIDTH 401 0
DWIDTH 8 0
BBX 8 16 0 -1
BITMAP
00
00
6C
6C
6C
6C
38
00
0F
18
0E
03
1E
00
00
00
ENDCHAR

STARTCHAR C040
ENCODING 32
SWIDTH 401 0
DWIDTH 8 0
BBX 8 16 0 -1
BITMAP
00
00
00
00
00
00
00
00
00
00
00
00
00
00
00
00
ENDCHAR

STARTCHAR C041
ENCODING 33
SWIDTH 401 0
DWIDTH 8 0
BBX 8 16 0 -1
BITMAP
0C
1E
1E
1E
1E
1E
1E
0C
0C
0C
00
00
0C
1E
0C
00
ENDCHAR

STARTCHAR C042
ENCODING 34
SWIDTH 401 0
DWIDTH 8 0
BBX 8 16 0 -1
BITMAP
00
00
37
37
1B
36
00
00
00
00
00
00
00
00
00
00
ENDCHAR

STARTCHAR C043
ENCODING 35
SWIDTH 401 0
DWIDTH 8 0
BBX 8 16 0 -1
BITMAP
00
00
36
36
36
7F
36
36
36
36
7F
36
36
36
00
00
ENDCHAR

STARTCHAR C044
ENCODING 36
SWIDTH 401 0
DWIDTH 8 0
BBX 8 16 0 -1
BITMAP
00
18
3C
56
56
58
38
1C
16
1B
1B
5B
56
3C
18
00
ENDCHAR

STARTCHAR C045
ENCODING 37
SWIDTH 401 0
DWIDTH 8 0
BBX 8 16 0 -1
BITMAP
00
03
3B
6E
6E
3C
0C
0C
18
1E
3B
3B
6E
60
00
00
ENDCHAR

STARTCHAR C046
ENCODING 38
SWIDTH 401 0
DWIDTH 8 0
BBX 8 16 0 -1
BITMAP
00
00
38
6C
6C
38
38
18
2C
6B
66
66
6B
38
00
00
ENDCHAR

STARTCHAR C047
ENCODING 39
SWIDTH 401 0
DWIDTH 8 0
BBX 8 16 0 -1
BITMAP
00
00
1C
1C
0C
18
00
00
00
00
00
00
00
00
00
00
ENDCHAR

STARTCHAR C050
ENCODING 40
SWIDTH 401 0
DWIDTH 8 0
BBX 8 16 0 -1
BITMAP
03
06
0C
0C
18
18
18
18
18
18
18
0C
0C
06
03
00
ENDCHAR

STARTCHAR C051
ENCODING 41
SWIDTH 401 0
DWIDTH 8 0
BBX 8 16 0 -1
BITMAP
30
18
0C
0C
06
06
06
06
06
06
06
0C
0C
18
30
00
ENDCHAR

STARTCHAR C052
ENCODING 42
SWIDTH 401 0
DWIDTH 8 0
BBX 8 16 0 -1
BITMAP
00
00
00
00
0C
2B
1E
0C
1E
2B
0C
00
00
00
00
00
ENDCHAR

STARTCHAR C053
ENCODING 43
SWIDTH 401 0
DWIDTH 8 0
BBX 8 16 0 -1
BITMAP
00
00
00
00
0C
0C
0C
3F
0C
0C
0C
00
00
00
00
00
ENDCHAR

STARTCHAR C054
ENCODING 44
SWIDTH 401 0
DWIDTH 8 0
BBX 8 16 0 -1
BITMAP
00
00
00
00
00
00
00
00
00
00
00
00
38
38
18
30
ENDCHAR

STARTCHAR C055
ENCODING 45
SWIDTH 401 0
DWIDTH 8 0
BBX 8 16 0 -1
BITMAP
00
00
00
00
00
00
00
7F
00
00
00
00
00
00
00
00
ENDCHAR

STARTCHAR C056
ENCODING 46
SWIDTH 401 0
DWIDTH 8 0
BBX 8 16 0 -1
BITMAP
00
00
00
00
00
00
00
00
00
00
00
00
00
38
38
00
ENDCHAR

STARTCHAR C057
ENCODING 47
SWIDTH 401 0
DWIDTH 8 0
BBX 8 16 0 -1
BITMAP
00
03
03
06
06
06
0C
0C
18
18
18
30
30
00
00
00
ENDCHAR

STARTCHAR C060
ENCODING 48
SWIDTH 401 0
DWIDTH 8 0
BBX 8 16 0 -1
BITMAP
00
00
1C
36
36
63
63
63
63
63
63
36
36
1C
00
00
ENDCHAR

STARTCHAR C061
ENCODING 49
SWIDTH 401 0
DWIDTH 8 0
BBX 8 16 0 -1
BITMAP
00
00
0C
1C
2C
0C
0C
0C
0C
0C
0C
0C
0C
1E
00
00
ENDCHAR

STARTCHAR C062
ENCODING 50
SWIDTH 401 0
DWIDTH 8 0
BBX 8 16 0 -1
BITMAP
00
00
1C
36
63
63
03
06
0C
18
30
30
60
7F
00
00
ENDCHAR

STARTCHAR C063
ENCODING 51
SWIDTH 401 0
DWIDTH 8 0
BBX 8 16 0 -1
BITMAP
00
00
1C
36
63
63
06
1C
06
03
03
63
36
1C
00
00
ENDCHAR

STARTCHAR C064
ENCODING 52
SWIDTH 401 0
DWIDTH 8 0
BBX 8 16 0 -1
BITMAP
00
00
06
0E
0E
16
16
36
36
66
7F
06
06
06
00
00
ENDCHAR

STARTCHAR C065
ENCODING 53
SWIDTH 401 0
DWIDTH 8 0
BBX 8 16 0 -1
BITMAP
00
00
7F
60
60
60
5C
76
63
03
03
03
66
3C
00
00
ENDCHAR

STARTCHAR C066
ENCODING 54
SWIDTH 401 0
DWIDTH 8 0
BBX 8 16 0 -1
BITMAP
00
00
1C
36
63
60
60
5C
76
63
63
63
36
1C
00
00
ENDCHAR

STARTCHAR C067
ENCODING 55
SWIDTH 401 0
DWIDTH 8 0
BBX 8 16 0 -1
BITMAP
00
00
7F
63
63
63
06
06
0C
0C
18
18
18
18
00
00
ENDCHAR

STARTCHAR C070
ENCODING 56
SWIDTH 401 0
DWIDTH 8 0
BBX 8 16 0 -1
BITMAP
00
00
1C
36
63
63
36
1C
36
63
63
63
36
1C
00
00
ENDCHAR

STARTCHAR C071
ENCODING 57
SWIDTH 401 0
DWIDTH 8 0
BBX 8 16 0 -1
BITMAP
00
00
1C
36
63
63
63
37
1B
03
03
63
36
1C
00
00
ENDCHAR

STARTCHAR C072
ENCODING 58
SWIDTH 401 0
DWIDTH 8 0
BBX 8 16 0 -1
BITMAP
00
00
00
00
00
00
1C
1C
00
00
00
00
1C
1C
00
00
ENDCHAR

STARTCHAR C073
ENCODING 59
SWIDTH 401 0
DWIDTH 8 0
BBX 8 16 0 -1
BITMAP
00
00
00
00
00
00
1C
1C
00
00
00
00
1C
1C
0C
18
ENDCHAR

STARTCHAR C074
ENCODING 60
SWIDTH 401 0
DWIDTH 8 0
BBX 8 16 0 -1
BITMAP
00
00
00
03
06
0C
18
30
18
0C
06
03
00
00
00
00
ENDCHAR

STARTCHAR C075
ENCODING 61
SWIDTH 401 0
DWIDTH 8 0
BBX 8 16 0 -1
BITMAP
00
00
00
00
00
7F
00
00
00
7F
00
00
00
00
00
00
ENDCHAR

STARTCHAR C076
ENCODING 62
SWIDTH 401 0
DWIDTH 8 0
BBX 8 16 0 -1
BITMAP
00
00
00
30
18
0C
06
03
06
0C
18
30
00
00
00
00
ENDCHAR

STARTCHAR C077
ENCODING 63
SWIDTH 401 0
DWIDTH 8 0
BBX 8 16 0 -1
BITMAP
00
00
1C
36
63
63
06
0C
0C
0C
00
0C
1E
0C
00
00
ENDCHAR

STARTCHAR C100
ENCODING 64
SWIDTH 401 0
DWIDTH 8 0
BBX 8 16 0 -1
BITMAP
00
00
1C
36
63
6B
57
57
57
57
57
6B
30
1F
00
00
ENDCHAR

STARTCHAR C101
ENCODING 65
SWIDTH 401 0
DWIDTH 8 0
BBX 8 16 0 -1
BITMAP
00
00
1C
1C
1C
1C
36
36
36
36
7F
63
63
63
00
00
ENDCHAR

STARTCHAR C102
ENCODING 66
SWIDTH 401 0
DWIDTH 8 0
BBX 8 16 0 -1
BITMAP
00
00
7C
66
63
63
66
7C
66
63
63
63
66
7C
00
00
ENDCHAR

STARTCHAR C103
ENCODING 67
SWIDTH 401 0
DWIDTH 8 0
BBX 8 16 0 -1
BITMAP
00
00
1C
36
63
63
60
60
60
60
63
63
36
1C
00
00
ENDCHAR

STARTCHAR C104
ENCODING 68
SWIDTH 401 0
DWIDTH 8 0
BBX 8 16 0 -1
BITMAP
00
00
7C
66
63
63
63
63
63
63
63
63
66
7C
00
00
ENDCHAR

STARTCHAR C105
ENCODING 69
SWIDTH 401 0
DWIDTH 8 0
BBX 8 16 0 -1
BITMAP
00
00
7F
60
60
60
60
7E
60
60
60
60
60
7F
00
00
ENDCHAR

STARTCHAR C106
ENCODING 70
SWIDTH 401 0
DWIDTH 8 0
BBX 8 16 0 -1
BITMAP
00
00
7F
60
60
60
60
7E
60
60
60
60
60
60
00
00
ENDCHAR

STARTCHAR C107
ENCODING 71
SWIDTH 401 0
DWIDTH 8 0
BBX 8 16 0 -1
BITMAP
00
00
1E
33
63
60
60
60
6F
63
63
63
37
1B
00
00
ENDCHAR

STARTCHAR C110
ENCODING 72
SWIDTH 401 0
DWIDTH 8 0
BBX 8 16 0 -1
BITMAP
00
00
63
63
63
63
63
7F
63
63
63
63
63
63
00
00
ENDCHAR

STARTCHAR C111
ENCODING 73
SWIDTH 401 0
DWIDTH 8 0
BBX 8 16 0 -1
BITMAP
00
00
3F
0C
0C
0C
0C
0C
0C
0C
0C
0C
0C
3F
00
00
ENDCHAR

STARTCHAR C112
ENCODING 74
SWIDTH 401 0
DWIDTH 8 0
BBX 8 16 0 -1
BITMAP
00
00
0F
06
06
06
06
06
06
06
06
66
66
3C
00
00
ENDCHAR

STARTCHAR C113
ENCODING 75
SWIDTH 401 0
DWIDTH 8 0
BBX 8 16 0 -1
BITMAP
00
00
61
63
66
6C
58
70
70
58
6C
66
63
61
00
00
ENDCHAR

STARTCHAR C114
ENCODING 76
SWIDTH 401 0
DWIDTH 8 0
BBX 8 16 0 -1
BITMAP
00
00
60
60
60
60
60
60
60
60
60
60
60
7F
00
00
ENDCHAR

STARTCHAR C115
ENCODING 77
SWIDTH 401 0
DWIDTH 8 0
BBX 8 16 0 -1
BITMAP
00
00
63
63
77
77
77
5B
5B
5B
63
63
63
63
00
00
ENDCHAR

STARTCHAR C116
ENCODING 78
SWIDTH 401 0
DWIDTH 8 0
BBX 8 16 0 -1
BITMAP
00
00
63
73
73
5B
5B
5B
6B
6B
6B
67
67
63
00
00
ENDCHAR

STARTCHAR C117
ENCODING 79
SWIDTH 401 0
DWIDTH 8 0
BBX 8 16 0 -1
BITMAP
00
00
1C
36
63
63
63
63
63
63
63
63
36
1C
00
00
ENDCHAR

STARTCHAR C120
ENCODING 80
SWIDTH 401 0
DWIDTH 8 0
BBX 8 16 0 -1
BITMAP
00
00
7C
66
63
63
63
66
7C
60
60
60
60
60
00
00
ENDCHAR

STARTCHAR C121
ENCODING 81
SWIDTH 401 0
DWIDTH 8 0
BBX 8 16 0 -1
BITMAP
00
00
1C
36
63
63
63
63
63
63
5B
77
36
1B
03
00
ENDCHAR

STARTCHAR C122
ENCODING 82
SWIDTH 401 0
DWIDTH 8 0
BBX 8 16 0 -1
BITMAP
00
00
7C
66
63
63
63
66
7C
58
6C
6C
66
63
00
00
ENDCHAR

STARTCHAR C123
ENCODING 83
SWIDTH 401 0
DWIDTH 8 0
BBX 8 16 0 -1
BITMAP
00
00
1C
36
63
63
30
1C
06
03
63
63
36
1C
00
00
ENDCHAR

STARTCHAR C124
ENCODING 84
SWIDTH 401 0
DWIDTH 8 0
BBX 8 16 0 -1
BITMAP
00
00
7F
0C
0C
0C
0C
0C
0C
0C
0C
0C
0C
0C
00
00
ENDCHAR

STARTCHAR C125
ENCODING 85
SWIDTH 401 0
DWIDTH 8 0
BBX 8 16 0 -1
BITMAP
00
00
63
63
63
63
63
63
63
63
63
63
36
1C
00
00
ENDCHAR

STARTCHAR C126
ENCODING 86
SWIDTH 401 0
DWIDTH 8 0
BBX 8 16 0 -1
BITMAP
00
00
63
63
63
63
36
36
36
36
1C
1C
1C
1C
00
00
ENDCHAR

STARTCHAR C127
ENCODING 87
SWIDTH 401 0
DWIDTH 8 0
BBX 8 16 0 -1
BITMAP
00
00
63
63
63
5B
5B
5B
5B
5B
36
36
36
36
00
00
ENDCHAR

STARTCHAR C130
ENCODING 88
SWIDTH 401 0
DWIDTH 8 0
BBX 8 16 0 -1
BITMAP
00
00
63
63
36
36
1C
1C
1C
1C
36
36
63
63
00
00
ENDCHAR

STARTCHAR C131
ENCODING 89
SWIDTH 401 0
DWIDTH 8 0
BBX 8 16 0 -1
BITMAP
00
00
61
61
61
33
33
16
16
0C
0C
0C
0C
0C
00
00
ENDCHAR

STARTCHAR C132
ENCODING 90
SWIDTH 401 0
DWIDTH 8 0
BBX 8 16 0 -1
BITMAP
00
00
7F
03
06
06
0C
0C
18
18
30
30
60
7F
00
00
ENDCHAR

STARTCHAR C133
ENCODING 91
SWIDTH 401 0
DWIDTH 8 0
BBX 8 16 0 -1
BITMAP
00
3E
30
30
30
30
30
30
30
30
30
30
30
30
3E
00
ENDCHAR

STARTCHAR C134
ENCODING 92
SWIDTH 401 0
DWIDTH 8 0
BBX 8 16 0 -1
BITMAP
00
33
33
2B
2B
2B
7F
2B
7F
2B
2B
16
16
16
00
00
ENDCHAR

STARTCHAR C135
ENCODING 93
SWIDTH 401 0
DWIDTH 8 0
BBX 8 16 0 -1
BITMAP
00
3E
06
06
06
06
06
06
06
06
06
06
06
06
3E
00
ENDCHAR

STARTCHAR C136
ENCODING 94
SWIDTH 401 0
DWIDTH 8 0
BBX 8 16 0 -1
BITMAP
0C
16
33
00
00
00
00
00
00
00
00
00
00
00
00
00
ENDCHAR

STARTCHAR C137
ENCODING 95
SWIDTH 401 0
DWIDTH 8 0
BBX 8 16 0 -1
BITMAP
00
00
00
00
00
00
00
00
00
00
00
00
00
00
00
7F
ENDCHAR

STARTCHAR C140
ENCODING 96
SWIDTH 401 0
DWIDTH 8 0
BBX 8 16 0 -1
BITMAP
03
06
07
07
00
00
00
00
00
00
00
00
00
00
00
00
ENDCHAR

STARTCHAR C141
ENCODING 97
SWIDTH 401 0
DWIDTH 8 0
BBX 8 16 0 -1
BITMAP
00
00
00
00
00
00
3E
63
03
3F
63
63
67
3B
00
00
ENDCHAR

STARTCHAR C142
ENCODING 98
SWIDTH 401 0
DWIDTH 8 0
BBX 8 16 0 -1
BITMAP
00
00
60
60
60
60
5C
76
63
63
63
63
76
5C
00
00
ENDCHAR

STARTCHAR C143
ENCODING 99
SWIDTH 401 0
DWIDTH 8 0
BBX 8 16 0 -1
BITMAP
00
00
00
00
00
00
1C
36
63
60
60
63
36
1C
00
00
ENDCHAR

STARTCHAR C144
ENCODING 100
SWIDTH 401 0
DWIDTH 8 0
BBX 8 16 0 -1
BITMAP
00
00
03
03
03
03
1B
37
63
63
63
63
37
1B
00
00
ENDCHAR

STARTCHAR C145
ENCODING 101
SWIDTH 401 0
DWIDTH 8 0
BBX 8 16 0 -1
BITMAP
00
00
00
00
00
00
1C
36
63
7F
60
60
33
1E
00
00
ENDCHAR

STARTCHAR C146
ENCODING 102
SWIDTH 401 0
DWIDTH 8 0
BBX 8 16 0 -1
BITMAP
00
0E
1B
18
18
18
7E
18
18
18
18
18
18
18
00
00
ENDCHAR

STARTCHAR C147
ENCODING 103
SWIDTH 401 0
DWIDTH 8 0
BBX 8 16 0 -1
BITMAP
00
00
00
00
00
00
1F
33
33
33
33
33
1F
03
33
1E
ENDCHAR

STARTCHAR C150
ENCODING 104
SWIDTH 401 0
DWIDTH 8 0
BBX 8 16 0 -1
BITMAP
00
00
60
60
60
60
5E
73
63
63
63
63
63
63
00
00
ENDCHAR

STARTCHAR C151
ENCODING 105
SWIDTH 401 0
DWIDTH 8 0
BBX 8 16 0 -1
BITMAP
00
00
00
1C
00
00
3C
0C
0C
0C
0C
0C
0C
1E
00
00
ENDCHAR

STARTCHAR C152
ENCODING 106
SWIDTH 401 0
DWIDTH 8 0
BBX 8 16 0 -1
BITMAP
00
00
00
0E
00
00
1E
06
06
06
06
06
06
36
36
1C
ENDCHAR

STARTCHAR C153
ENCODING 107
SWIDTH 401 0
DWIDTH 8 0
BBX 8 16 0 -1
BITMAP
00
00
60
60
60
60
63
66
6C
58
78
6C
66
63
00
00
ENDCHAR

STARTCHAR C154
ENCODING 108
SWIDTH 401 0
DWIDTH 8 0
BBX 8 16 0 -1
BITMAP
00
00
1C
0C
0C
0C
0C
0C
0C
0C
0C
0C
0C
1E
00
00
ENDCHAR

STARTCHAR C155
ENCODING 109
SWIDTH 401 0
DWIDTH 8 0
BBX 8 16 0 -1
BITMAP
00
00
00
00
00
00
5B
6D
6D
6D
6D
6D
6D
6D
00
00
ENDCHAR

STARTCHAR C156
ENCODING 110
SWIDTH 401 0
DWIDTH 8 0
BBX 8 16 0 -1
BITMAP
00
00
00
00
00
00
2E
3B
33
33
33
33
33
33
00
00
ENDCHAR

STARTCHAR C157
ENCODING 111
SWIDTH 401 0
DWIDTH 8 0
BBX 8 16 0 -1
BITMAP
00
00
00
00
00
00
1C
36
63
63
63
63
36
1C
00
00
ENDCHAR

STARTCHAR C160
ENCODING 112
SWIDTH 401 0
DWIDTH 8 0
BBX 8 16 0 -1
BITMAP
00
00
00
00
00
00
5C
76
63
63
63
63
76
5C
60
60
ENDCHAR

STARTCHAR C161
ENCODING 113
SWIDTH 401 0
DWIDTH 8 0
BBX 8 16 0 -1
BITMAP
00
00
00
00
00
00
1B
37
63
63
63
63
37
1B
03
03
ENDCHAR

STARTCHAR C162
ENCODING 114
SWIDTH 401 0
DWIDTH 8 0
BBX 8 16 0 -1
BITMAP
00
00
00
00
00
00
2E
3B
30
30
30
30
30
30
00
00
ENDCHAR

STARTCHAR C163
ENCODING 115
SWIDTH 401 0
DWIDTH 8 0
BBX 8 16 0 -1
BITMAP
00
00
00
00
00
00
3E
63
60
3E
03
63
63
3E
00
00
ENDCHAR

STARTCHAR C164
ENCODING 116
SWIDTH 401 0
DWIDTH 8 0
BBX 8 16 0 -1
BITMAP
00
00
00
18
18
18
7F
18
18
18
18
18
1B
0E
00
00
ENDCHAR

STARTCHAR C165
ENCODING 117
SWIDTH 401 0
DWIDTH 8 0
BBX 8 16 0 -1
BITMAP
00
00
00
00
00
00
33
33
33
33
33
33
37
1B
00
00
ENDCHAR

STARTCHAR C166
ENCODING 118
SWIDTH 401 0
DWIDTH 8 0
BBX 8 16 0 -1
BITMAP
00
00
00
00
00
00
63
63
63
36
36
36
1C
1C
00
00
ENDCHAR

STARTCHAR C167
ENCODING 119
SWIDTH 401 0
DWIDTH 8 0
BBX 8 16 0 -1
BITMAP
00
00
00
00
00
00
63
63
5B
5B
5B
36
36
36
00
00
ENDCHAR

STARTCHAR C170
ENCODING 120
SWIDTH 401 0
DWIDTH 8 0
BBX 8 16 0 -1
BITMAP
00
00
00
00
00
00
63
63
36
1C
1C
36
63
63
00
00
ENDCHAR

STARTCHAR C171
ENCODING 121
SWIDTH 401 0
DWIDTH 8 0
BBX 8 16 0 -1
BITMAP
00
00
00
00
00
00
63
63
63
63
67
3B
03
03
63
3E
ENDCHAR

STARTCHAR C172
ENCODING 122
SWIDTH 401 0
DWIDTH 8 0
BBX 8 16 0 -1
BITMAP
00
00
00
00
00
00
7F
03
06
0C
18
30
60
7F
00
00
ENDCHAR

STARTCHAR C173
ENCODING 123
SWIDTH 401 0
DWIDTH 8 0
BBX 8 16 0 -1
BITMAP
03
06
0C
0C
0C
0C
18
30
18
0C
0C
0C
0C
06
03
00
ENDCHAR

STARTCHAR C174
ENCODING 124
SWIDTH 401 0
DWIDTH 8 0
BBX 8 16 0 -1
BITMAP
0C
0C
0C
0C
0C
0C
0C
0C
0C
0C
0C
0C
0C
0C
00
00
ENDCHAR

STARTCHAR C175
ENCODING 125
SWIDTH 401 0
DWIDTH 8 0
BBX 8 16 0 -1
BITMAP
30
18
0C
0C
0C
0C
06
03
06
0C
0C
0C
0C
18
30
00
ENDCHAR

STARTCHAR C176
ENCODING 126
SWIDTH 401 0
DWIDTH 8 0
BBX 8 16 0 -1
BITMAP
00
00
00
00
00
00
18
2B
06
00
00
00
00
00
00
00
ENDCHAR

STARTCHAR C177
ENCODING 127
SWIDTH 401 0
DWIDTH 8 0
BBX 8 16 0 -1
BITMAP
2B
16
2B
16
2B
16
2B
16
2B
16
2B
16
2B
16
2B
00
ENDCHAR

STARTCHAR C200
ENCODING 128
SWIDTH 401 0
DWIDTH 8 0
BBX 8 16 0 -1
BITMAP
00
00
38
6C
38
6C
38
00
0E
1B
1B
1B
0E
00
00
00
ENDCHAR

STARTCHAR C201
ENCODING 129
SWIDTH 401 0
DWIDTH 8 0
BBX 8 16 0 -1
BITMAP
00
00
38
6C
38
6C
38
00
06
0E
06
06
0F
00
00
00
ENDCHAR

STARTCHAR C202
ENCODING 130
SWIDTH 401 0
DWIDTH 8 0
BBX 8 16 0 -1
BITMAP
00
00
38
6C
38
6C
38
00
0E
1B
06
0C
1F
00
00
00
ENDCHAR

STARTCHAR C203
ENCODING 131
SWIDTH 401 0
DWIDTH 8 0
BBX 8 16 0 -1
BITMAP
00
00
38
6C
38
6C
38
00
1E
03
0E
03
1E
00
00
00
ENDCHAR

STARTCHAR C204
ENCODING 132
SWIDTH 401 0
DWIDTH 8 0
BBX 8 16 0 -1
BITMAP
00
00
38
6C
38
6C
38
00
16
16
1F
06
06
00
00
00
ENDCHAR

STARTCHAR C205
ENCODING 133
SWIDTH 401 0
DWIDTH 8 0
BBX 8 16 0 -1
BITMAP
00
00
38
6C
38
6C
38
00
1F
18
1E
03
1E
00
00
00
ENDCHAR

STARTCHAR C206
ENCODING 134
SWIDTH 401 0
DWIDTH 8 0
BBX 8 16 0 -1
BITMAP
00
00
38
6C
38
6C
38
00
0E
18
1E
1B
0E
00
00
00
ENDCHAR

STARTCHAR C207
ENCODING 135
SWIDTH 401 0
DWIDTH 8 0
BBX 8 16 0 -1
BITMAP
00
00
38
6C
38
6C
38
00
1F
03
06
0C
18
00
00
00
ENDCHAR

STARTCHAR C210
ENCODING 136
SWIDTH 401 0
DWIDTH 8 0
BBX 8 16 0 -1
BITMAP
00
00
38
6C
38
6C
38
00
0E
1B
0E
1B
0E
00
00
00
ENDCHAR

STARTCHAR C211
ENCODING 137
SWIDTH 401 0
DWIDTH 8 0
BBX 8 16 0 -1
BITMAP
00
00
38
6C
38
6C
38
00
0E
1B
0F
03
0E
00
00
00
ENDCHAR

STARTCHAR C212
ENCODING 138
SWIDTH 401 0
DWIDTH 8 0
BBX 8 16 0 -1
BITMAP
00
00
38
6C
38
6C
38
00
0E
1B
1F
1B
1B
00
00
00
ENDCHAR

STARTCHAR C213
ENCODING 139
SWIDTH 401 0
DWIDTH 8 0
BBX 8 16 0 -1
BITMAP
00
00
38
6C
38
6C
38
00
1E
1B
1E
1B
1E
00
00
00
ENDCHAR

STARTCHAR C214
ENCODING 140
SWIDTH 401 0
DWIDTH 8 0
BBX 8 16 0 -1
BITMAP
00
00
38
6C
38
6C
38
00
0F
18
18
18
0F
00
00
00
ENDCHAR

STARTCHAR C215
ENCODING 141
SWIDTH 401 0
DWIDTH 8 0
BBX 8 16 0 -1
BITMAP
00
00
38
6C
38
6C
38
00
1E
1B
1B
1B
1E
00
00
00
ENDCHAR

STARTCHAR C216
ENCODING 142
SWIDTH 401 0
DWIDTH 8 0
BBX 8 16 0 -1
BITMAP
00
00
38
6C
38
6C
38
00
1F
18
1E
18
1F
00
00
00
ENDCHAR

STARTCHAR C217
ENCODING 143
SWIDTH 401 0
DWIDTH 8 0
BBX 8 16 0 -1
BITMAP
00
00
38
6C
38
6C
38
00
1F
18
1E
18
18
00
00
00
ENDCHAR

STARTCHAR C220
ENCODING 144
SWIDTH 401 0
DWIDTH 8 0
BBX 8 16 0 -1
BITMAP
00
00
38
6C
3C
0C
38
00
0E
1B
1B
1B
0E
00
00
00
ENDCHAR

STARTCHAR C221
ENCODING 145
SWIDTH 401 0
DWIDTH 8 0
BBX 8 16 0 -1
BITMAP
00
00
38
6C
3C
0C
38
00
06
0E
06
06
0F
00
00
00
ENDCHAR

STARTCHAR C222
ENCODING 146
SWIDTH 401 0
DWIDTH 8 0
BBX 8 16 0 -1
BITMAP
00
00
38
6C
3C
0C
38
00
0E
1B
06
0C
1F
00
00
00
ENDCHAR

STARTCHAR C223
ENCODING 147
SWIDTH 401 0
DWIDTH 8 0
BBX 8 16 0 -1
BITMAP
00
00
38
6C
3C
0C
38
00
1E
03
0E
03
1E
00
00
00
ENDCHAR

STARTCHAR C224
ENCODING 148
SWIDTH 401 0
DWIDTH 8 0
BBX 8 16 0 -1
BITMAP
00
00
38
6C
3C
0C
38
00
16
16
1F
06
06
00
00
00
ENDCHAR

STARTCHAR C225
ENCODING 149
SWIDTH 401 0
DWIDTH 8 0
BBX 8 16 0 -1
BITMAP
00
00
38
6C
3C
0C
38
00
1F
18
1E
03
1E
00
00
00
ENDCHAR

STARTCHAR C226
ENCODING 150
SWIDTH 401 0
DWIDTH 8 0
BBX 8 16 0 -1
BITMAP
00
00
38
6C
3C
0C
38
00
0E
18
1E
1B
0E
00
00
00
ENDCHAR

STARTCHAR C227
ENCODING 151
SWIDTH 401 0
DWIDTH 8 0
BBX 8 16 0 -1
BITMAP
00
00
38
6C
3C
0C
38
00
1F
03
06
0C
18
00
00
00
ENDCHAR

STARTCHAR C230
ENCODING 152
SWIDTH 401 0
DWIDTH 8 0
BBX 8 16 0 -1
BITMAP
00
00
38
6C
3C
0C
38
00
0E
1B
0E
1B
0E
00
00
00
ENDCHAR

STARTCHAR C231
ENCODING 153
SWIDTH 401 0
DWIDTH 8 0
BBX 8 16 0 -1
BITMAP
00
00
38
6C
3C
0C
38
00
0E
1B
0F
03
0E
00
00
00
ENDCHAR

STARTCHAR C232
ENCODING 154
SWIDTH 401 0
DWIDTH 8 0
BBX 8 16 0 -1
BITMAP
00
00
38
6C
3C
0C
38
00
0E
1B
1F
1B
1B
00
00
00
ENDCHAR

STARTCHAR C233
ENCODING 155
SWIDTH 401 0
DWIDTH 8 0
BBX 8 16 0 -1
BITMAP
00
00
38
6C
3C
0C
38
00
1E
1B
1E
1B
1E
00
00
00
ENDCHAR

STARTCHAR C234
ENCODING 156
SWIDTH 401 0
DWIDTH 8 0
BBX 8 16 0 -1
BITMAP
00
00
38
6C
3C
0C
38
00
0F
18
18
18
0F
00
00
00
ENDCHAR

STARTCHAR C235
ENCODING 157
SWIDTH 401 0
DWIDTH 8 0
BBX 8 16 0 -1
BITMAP
00
00
38
6C
3C
0C
38
00
1E
1B
1B
1B
1E
00
00
00
ENDCHAR

STARTCHAR C236
ENCODING 158
SWIDTH 401 0
DWIDTH 8 0
BBX 8 16 0 -1
BITMAP
00
00
38
6C
3C
0C
38
00
1F
18
1E
18
1F
00
00
00
ENDCHAR

STARTCHAR C237
ENCODING 159
SWIDTH 401 0
DWIDTH 8 0
BBX 8 16 0 -1
BITMAP
00
00
38
6C
3C
0C
38
00
1F
18
1E
18
18
00
00
00
ENDCHAR

STARTCHAR C240
ENCODING 160
SWIDTH 401 0
DWIDTH 8 0
BBX 8 16 0 -1
BITMAP
00
00
38
6C
7C
6C
6C
00
0E
1B
1B
1B
0E
00
00
00
ENDCHAR

STARTCHAR C241
ENCODING 161
SWIDTH 401 0
DWIDTH 8 0
BBX 8 16 0 -1
BITMAP
00
00
38
6C
7C
6C
6C
00
06
0E
06
06
0F
00
00
00
ENDCHAR

STARTCHAR C242
ENCODING 162
SWIDTH 401 0
DWIDTH 8 0
BBX 8 16 0 -1
BITMAP
00
00
38
6C
7C
6C
6C
00
0E
1B
06
0C
1F
00
00
00
ENDCHAR

STARTCHAR C243
ENCODING 163
SWIDTH 401 0
DWIDTH 8 0
BBX 8 16 0 -1
BITMAP
00
00
38
6C
7C
6C
6C
00
1E
03
0E
03
1E
00
00
00
ENDCHAR

STARTCHAR C244
ENCODING 164
SWIDTH 401 0
DWIDTH 8 0
BBX 8 16 0 -1
BITMAP
00
00
38
6C
7C
6C
6C
00
16
16
1F
06
06
00
00
00
ENDCHAR

STARTCHAR C245
ENCODING 165
SWIDTH 401 0
DWIDTH 8 0
BBX 8 16 0 -1
BITMAP
00
00
38
6C
7C
6C
6C
00
1F
18
1E
03
1E
00
00
00
ENDCHAR

STARTCHAR C246
ENCODING 166
SWIDTH 401 0
DWIDTH 8 0
BBX 8 16 0 -1
BITMAP
00
00
38
6C
7C
6C
6C
00
0E
18
1E
1B
0E
00
00
00
ENDCHAR

STARTCHAR C247
ENCODING 167
SWIDTH 401 0
DWIDTH 8 0
BBX 8 16 0 -1
BITMAP
00
00
38
6C
7C
6C
6C
00
1F
03
06
0C
18
00
00
00
ENDCHAR

STARTCHAR C250
ENCODING 168
SWIDTH 401 0
DWIDTH 8 0
BBX 8 16 0 -1
BITMAP
00
00
38
6C
7C
6C
6C
00
0E
1B
0E
1B
0E
00
00
00
ENDCHAR

STARTCHAR C251
ENCODING 169
SWIDTH 401 0
DWIDTH 8 0
BBX 8 16 0 -1
BITMAP
00
00
38
6C
7C
6C
6C
00
0E
1B
0F
03
0E
00
00
00
ENDCHAR

STARTCHAR C252
ENCODING 170
SWIDTH 401 0
DWIDTH 8 0
BBX 8 16 0 -1
BITMAP
00
00
38
6C
7C
6C
6C
00
0E
1B
1F
1B
1B
00
00
00
ENDCHAR

STARTCHAR C253
ENCODING 171
SWIDTH 401 0
DWIDTH 8 0
BBX 8 16 0 -1
BITMAP
00
00
38
6C
7C
6C
6C
00
1E
1B
1E
1B
1E
00
00
00
ENDCHAR

STARTCHAR C254
ENCODING 172
SWIDTH 401 0
DWIDTH 8 0
BBX 8 16 0 -1
BITMAP
00
00
38
6C
7C
6C
6C
00
0F
18
18
18
0F
00
00
00
ENDCHAR

STARTCHAR C255
ENCODING 173
SWIDTH 401 0
DWIDTH 8 0
BBX 8 16 0 -1
BITMAP
00
00
38
6C
7C
6C
6C
00
1E
1B
1B
1B
1E
00
00
00
ENDCHAR

STARTCHAR C256
ENCODING 174
SWIDTH 401 0
DWIDTH 8 0
BBX 8 16 0 -1
BITMAP
00
00
38
6C
7C
6C
6C
00
1F
18
1E
18
1F
00
00
00
ENDCHAR

STARTCHAR C257
ENCODING 175
SWIDTH 401 0
DWIDTH 8 0
BBX 8 16 0 -1
BITMAP
00
00
38
6C
7C
6C
6C
00
1F
18
1E
18
18
00
00
00
ENDCHAR

STARTCHAR C260
ENCODING 176
SWIDTH 401 0
DWIDTH 8 0
BBX 8 16 0 -1
BITMAP
00
00
78
6C
78
6C
78
00
0E
1B
1B
1B
0E
00
00
00
ENDCHAR

STARTCHAR C261
ENCODING 177
SWIDTH 401 0
DWIDTH 8 0
BBX 8 16 0 -1
BITMAP
00
00
78
6C
78
6C
78
00
06
0E
06
06
0F
00
00
00
ENDCHAR

STARTCHAR C262
ENCODING 178
SWIDTH 401 0
DWIDTH 8 0
BBX 8 16 0 -1
BITMAP
00
00
78
6C
78
6C
78
00
0E
1B
06
0C
1F
00
00
00
ENDCHAR

STARTCHAR C263
ENCODING 179
SWIDTH 401 0
DWIDTH 8 0
BBX 8 16 0 -1
BITMAP
00
00
78
6C
78
6C
78
00
1E
03
0E
03
1E
00
00
00
ENDCHAR

STARTCHAR C264
ENCODING 180
SWIDTH 401 0
DWIDTH 8 0
BBX 8 16 0 -1
BITMAP
00
00
78
6C
78
6C
78
00
16
16
1F
06
06
00
00
00
ENDCHAR

STARTCHAR C265
ENCODING 181
SWIDTH 401 0
DWIDTH 8 0
BBX 8 16 0 -1
BITMAP
00
00
78
6C
78
6C
78
00
1F
18
1E
03
1E
00
00
00
ENDCHAR

STARTCHAR C266
ENCODING 182
SWIDTH 401 0
DWIDTH 8 0
BBX 8 16 0 -1
BITMAP
00
00
78
6C
78
6C
78
00
0E
18
1E
1B
0E
00
00
00
ENDCHAR

STARTCHAR C267
ENCODING 183
SWIDTH 401 0
DWIDTH 8 0
BBX 8 16 0 -1
BITMAP
00
00
78
6C
78
6C
78
00
1F
03
06
0C
18
00
00
00
ENDCHAR

STARTCHAR C270
ENCODING 184
SWIDTH 401 0
DWIDTH 8 0
BBX 8 16 0 -1
BITMAP
00
00
78
6C
78
6C
78
00
0E
1B
0E
1B
0E
00
00
00
ENDCHAR

STARTCHAR C271
ENCODING 185
SWIDTH 401 0
DWIDTH 8 0
BBX 8 16 0 -1
BITMAP
00
00
78
6C
78
6C
78
00
0E
1B
0F
03
0E
00
00
00
ENDCHAR

STARTCHAR C272
ENCODING 186
SWIDTH 401 0
DWIDTH 8 0
BBX 8 16 0 -1
BITMAP
00
00
78
6C
78
6C
78
00
0E
1B
1F
1B
1B
00
00
00
ENDCHAR

STARTCHAR C273
ENCODING 187
SWIDTH 401 0
DWIDTH 8 0
BBX 8 16 0 -1
BITMAP
00
00
78
6C
78
6C
78
00
1E
1B
1E
1B
1E
00
00
00
ENDCHAR

STARTCHAR C274
ENCODING 188
SWIDTH 401 0
DWIDTH 8 0
BBX 8 16 0 -1
BITMAP
00
00
78
6C
78
6C
78
00
0F
18
18
18
0F
00
00
00
ENDCHAR

STARTCHAR C275
ENCODING 189
SWIDTH 401 0
DWIDTH 8 0
BBX 8 16 0 -1
BITMAP
00
00
78
6C
78
6C
78
00
1E
1B
1B
1B
1E
00
00
00
ENDCHAR

STARTCHAR C276
ENCODING 190
SWIDTH 401 0
DWIDTH 8 0
BBX 8 16 0 -1
BITMAP
00
00
78
6C
78
6C
78
00
1F
18
1E
18
1F
00
00
00
ENDCHAR

STARTCHAR C277
ENCODING 191
SWIDTH 401 0
DWIDTH 8 0
BBX 8 16 0 -1
BITMAP
00
00
78
6C
78
6C
78
00
1F
18
1E
18
18
00
00
00
ENDCHAR

STARTCHAR C300
ENCODING 192
SWIDTH 401 0
DWIDTH 8 0
BBX 8 16 0 -1
BITMAP
00
00
3C
60
60
60
3C
00
0E
1B
1B
1B
0E
00
00
00
ENDCHAR

STARTCHAR C301
ENCODING 193
SWIDTH 401 0
DWIDTH 8 0
BBX 8 16 0 -1
BITMAP
00
00
3C
60
60
60
3C
00
06
0E
06
06
0F
00
00
00
ENDCHAR

STARTCHAR C302
ENCODING 194
SWIDTH 401 0
DWIDTH 8 0
BBX 8 16 0 -1
BITMAP
00
00
3C
60
60
60
3C
00
0E
1B
06
0C
1F
00
00
00
ENDCHAR

STARTCHAR C303
ENCODING 195
SWIDTH 401 0
DWIDTH 8 0
BBX 8 16 0 -1
BITMAP
00
00
3C
60
60
60
3C
00
1E
03
0E
03
1E
00
00
00
ENDCHAR

STARTCHAR C304
ENCODING 196
SWIDTH 401 0
DWIDTH 8 0
BBX 8 16 0 -1
BITMAP
00
00
3C
60
60
60
3C
00
16
16
1F
06
06
00
00
00
ENDCHAR

STARTCHAR C305
ENCODING 197
SWIDTH 401 0
DWIDTH 8 0
BBX 8 16 0 -1
BITMAP
00
00
3C
60
60
60
3C
00
1F
18
1E
03
1E
00
00
00
ENDCHAR

STARTCHAR C306
ENCODING 198
SWIDTH 401 0
DWIDTH 8 0
BBX 8 16 0 -1
BITMAP
00
00
3C
60
60
60
3C
00
0E
18
1E
1B
0E
00
00
00
ENDCHAR

STARTCHAR C307
ENCODING 199
SWIDTH 401 0
DWIDTH 8 0
BBX 8 16 0 -1
BITMAP
00
00
3C
60
60
60
3C
00
1F
03
06
0C
18
00
00
00
ENDCHAR

STARTCHAR C310
ENCODING 200
SWIDTH 401 0
DWIDTH 8 0
BBX 8 16 0 -1
BITMAP
00
00
3C
60
60
60
3C
00
0E
1B
0E
1B
0E
00
00
00
ENDCHAR

STARTCHAR C311
ENCODING 201
SWIDTH 401 0
DWIDTH 8 0
BBX 8 16 0 -1
BITMAP
00
00
3C
60
60
60
3C
00
0E
1B
0F
03
0E
00
00
00
ENDCHAR

STARTCHAR C312
ENCODING 202
SWIDTH 401 0
DWIDTH 8 0
BBX 8 16 0 -1
BITMAP
00
00
3C
60
60
60
3C
00
0E
1B
1F
1B
1B
00
00
00
ENDCHAR

STARTCHAR C313
ENCODING 203
SWIDTH 401 0
DWIDTH 8 0
BBX 8 16 0 -1
BITMAP
00
00
3C
60
60
60
3C
00
1E
1B
1E
1B
1E
00
00
00
ENDCHAR

STARTCHAR C314
ENCODING 204
SWIDTH 401 0
DWIDTH 8 0
BBX 8 16 0 -1
BITMAP
00
00
3C
60
60
60
3C
00
0F
18
18
18
0F
00
00
00
ENDCHAR

STARTCHAR C315
ENCODING 205
SWIDTH 401 0
DWIDTH 8 0
BBX 8 16 0 -1
BITMAP
00
00
3C
60
60
60
3C
00
1E
1B
1B
1B
1E
00
00
00
ENDCHAR

STARTCHAR C316
ENCODING 206
SWIDTH 401 0
DWIDTH 8 0
BBX 8 16 0 -1
BITMAP
00
00
3C
60
60
60
3C
00
1F
18
1E
18
1F
00
00
00
ENDCHAR

STARTCHAR C317
ENCODING 207
SWIDTH 401 0
DWIDTH 8 0
BBX 8 16 0 -1
BITMAP
00
00
3C
60
60
60
3C
00
1F
18
1E
18
18
00
00
00
ENDCHAR

STARTCHAR C320
ENCODING 208
SWIDTH 401 0
DWIDTH 8 0
BBX 8 16 0 -1
BITMAP
00
00
78
6C
6C
6C
78
00
0E
1B
1B
1B
0E
00
00
00
ENDCHAR

STARTCHAR C321
ENCODING 209
SWIDTH 401 0
DWIDTH 8 0
BBX 8 16 0 -1
BITMAP
00
00
78
6C
6C
6C
78
00
06
0E
06
06
0F
00
00
00
ENDCHAR

STARTCHAR C322
ENCODING 210
SWIDTH 401 0
DWIDTH 8 0
BBX 8 16 0 -1
BITMAP
00
00
78
6C
6C
6C
78
00
0E
1B
06
0C
1F
00
00
00
ENDCHAR

STARTCHAR C323
ENCODING 211
SWIDTH 401 0
DWIDTH 8 0
BBX 8 16 0 -1
BITMAP
00
00
78
6C
6C
6C
78
00
1E
03
0E
03
1E
00
00
00
ENDCHAR

STARTCHAR C324
ENCODING 212
SWIDTH 401 0
DWIDTH 8 0
BBX 8 16 0 -1
BITMAP
00
00
78
6C
6C
6C
78
00
16
16
1F
06
06
00
00
00
ENDCHAR

STARTCHAR C325
ENCODING 213
SWIDTH 401 0
DWIDTH 8 0
BBX 8 16 0 -1
BITMAP
00
00
78
6C
6C
6C
78
00
1F
18
1E
03
1E
00
00
00
ENDCHAR

STARTCHAR C326
ENCODING 214
SWIDTH 401 0
DWIDTH 8 0
BBX 8 16 0 -1
BITMAP
00
00
78
6C
6C
6C
78
00
0E
18
1E
1B
0E
00
00
00
ENDCHAR

STARTCHAR C327
ENCODING 215
SWIDTH 401 0
DWIDTH 8 0
BBX 8 16 0 -1
BITMAP
00
00
78
6C
6C
6C
78
00
1F
03
06
0C
18
00
00
00
ENDCHAR

STARTCHAR C330
ENCODING 216
SWIDTH 401 0
DWIDTH 8 0
BBX 8 16 0 -1
BITMAP
00
00
78
6C
6C
6C
78
00
0E
1B
0E
1B
0E
00
00
00
ENDCHAR

STARTCHAR C331
ENCODING 217
SWIDTH 401 0
DWIDTH 8 0
BBX 8 16 0 -1
BITMAP
00
00
78
6C
6C
6C
78
00
0E
1B
0F
03
0E
00
00
00
ENDCHAR

STARTCHAR C332
ENCODING 218
SWIDTH 401 0
DWIDTH 8 0
BBX 8 16 0 -1
BITMAP
00
00
78
6C
6C
6C
78
00
0E
1B
1F
1B
1B
00
00
00
ENDCHAR

STARTCHAR C333
ENCODING 219
SWIDTH 401 0
DWIDTH 8 0
BBX 8 16 0 -1
BITMAP
00
00
78
6C
6C
6C
78
00
1E
1B
1E
1B
1E
00
00
00
ENDCHAR

STARTCHAR C334
ENCODING 220
SWIDTH 401 0
DWIDTH 8 0
BBX 8 16 0 -1
BITMAP
00
00
78
6C
6C
6C
78
00
0F
18
18
18
0F
00
00
00
ENDCHAR

STARTCHAR C335
ENCODING 221
SWIDTH 401 0
DWIDTH 8 0
BBX 8 16 0 -1
BITMAP
00
00
78
6C
6C
6C
78
00
1E
1B
1B
1B
1E
00
00
00
ENDCHAR

STARTCHAR C336
ENCODING 222
SWIDTH 401 0
DWIDTH 8 0
BBX 8 16 0 -1
BITMAP
00
00
78
6C
6C
6C
78
00
1F
18
1E
18
1F
00
00
00
ENDCHAR

STARTCHAR C337
ENCODING 223
SWIDTH 401 0
DWIDTH 8 0
BBX 8 16 0 -1
BITMAP
00
00
78
6C
6C
6C
78
00
1F
18
1E
18
18
00
00
00
ENDCHAR

STARTCHAR C340
ENCODING 224
SWIDTH 401 0
DWIDTH 8 0
BBX 8 16 0 -1
BITMAP
00
00
7C
60
78
60
7C
00
0E
1B
1B
1B
0E
00
00
00
ENDCHAR

STARTCHAR C341
ENCODING 225
SWIDTH 401 0
DWIDTH 8 0
BBX 8 16 0 -1
BITMAP
00
00
7C
60
78
60
7C
00
06
0E
06
06
0F
00
00
00
ENDCHAR

STARTCHAR C342
ENCODING 226
SWIDTH 401 0
DWIDTH 8 0
BBX 8 16 0 -1
BITMAP
00
00
7C
60
78
60
7C
00
0E
1B
06
0C
1F
00
00
00
ENDCHAR

STARTCHAR C343
ENCODING 227
SWIDTH 401 0
DWIDTH 8 0
BBX 8 16 0 -1
BITMAP
00
00
7C
60
78
60
7C
00
1E
03
0E
03
1E
00
00
00
ENDCHAR

STARTCHAR C344
ENCODING 228
SWIDTH 401 0
DWIDTH 8 0
BBX 8 16 0 -1
BITMAP
00
00
7C
60
78
60
7C
00
16
16
1F
06
06
00
00
00
ENDCHAR

STARTCHAR C345
ENCODING 229
SWIDTH 401 0
DWIDTH 8 0
BBX 8 16 0 -1
BITMAP
00
00
7C
60
78
60
7C
00
1F
18
1E
03
1E
00
00
00
ENDCHAR

STARTCHAR C346
ENCODING 230
SWIDTH 401 0
DWIDTH 8 0
BBX 8 16 0 -1
BITMAP
00
00
7C
60
78
60
7C
00
0E
18
1E
1B
0E
00
00
00
ENDCHAR

STARTCHAR C347
ENCODING 231
SWIDTH 401 0
DWIDTH 8 0
BBX 8 16 0 -1
BITMAP
00
00
7C
60
78
60
7C
00
1F
03
06
0C
18
00
00
00
ENDCHAR

STARTCHAR C350
ENCODING 232
SWIDTH 401 0
DWIDTH 8 0
BBX 8 16 0 -1
BITMAP
00
00
7C
60
78
60
7C
00
0E
1B
0E
1B
0E
00
00
00
ENDCHAR

STARTCHAR C351
ENCODING 233
SWIDTH 401 0
DWIDTH 8 0
BBX 8 16 0 -1
BITMAP
00
00
7C
60
78
60
7C
00
0E
1B
0F
03
0E
00
00
00
ENDCHAR

STARTCHAR C352
ENCODING 234
SWIDTH 401 0
DWIDTH 8 0
BBX 8 16 0 -1
BITMAP
00
00
7C
60
78
60
7C
00
0E
1B
1F
1B
1B
00
00
00
ENDCHAR

STARTCHAR C353
ENCODING 235
SWIDTH 401 0
DWIDTH 8 0
BBX 8 16 0 -1
BITMAP
00
00
7C
60
78
60
7C
00
1E
1B
1E
1B
1E
00
00
00
ENDCHAR

STARTCHAR C354
ENCODING 236
SWIDTH 401 0
DWIDTH 8 0
BBX 8 16 0 -1
BITMAP
00
00
7C
60
78
60
7C
00
0F
18
18
18
0F
00
00
00
ENDCHAR

STARTCHAR C355
ENCODING 237
SWIDTH 401 0
DWIDTH 8 0
BBX 8 16 0 -1
BITMAP
00
00
7C
60
78
60
7C
00
1E
1B
1B
1B
1E
00
00
00
ENDCHAR

STARTCHAR C356
ENCODING 238
SWIDTH 401 0
DWIDTH 8 0
BBX 8 16 0 -1
BITMAP
00
00
7C
60
78
60
7C
00
1F
18
1E
18
1F
00
00
00
ENDCHAR

STARTCHAR C357
ENCODING 239
SWIDTH 401 0
DWIDTH 8 0
BBX 8 16 0 -1
BITMAP
00
00
7C
60
78
60
7C
00
1F
18
1E
18
18
00
00
00
ENDCHAR

STARTCHAR C360
ENCODING 240
SWIDTH 401 0
DWIDTH 8 0
BBX 8 16 0 -1
BITMAP
00
00
7C
60
78
60
60
00
0E
1B
1B
1B
0E
00
00
00
ENDCHAR

STARTCHAR C361
ENCODING 241
SWIDTH 401 0
DWIDTH 8 0
BBX 8 16 0 -1
BITMAP
00
00
7C
60
78
60
60
00
06
0E
06
06
0F
00
00
00
ENDCHAR

STARTCHAR C362
ENCODING 242
SWIDTH 401 0
DWIDTH 8 0
BBX 8 16 0 -1
BITMAP
00
00
7C
60
78
60
60
00
0E
1B
06
0C
1F
00
00
00
ENDCHAR

STARTCHAR C363
ENCODING 243
SWIDTH 401 0
DWIDTH 8 0
BBX 8 16 0 -1
BITMAP
00
00
7C
60
78
60
60
00
1E
03
0E
03
1E
00
00
00
ENDCHAR

STARTCHAR C364
ENCODING 244
SWIDTH 401 0
DWIDTH 8 0
BBX 8 16 0 -1
BITMAP
00
00
7C
60
78
60
60
00
16
16
1F
06
06
00
00
00
ENDCHAR

STARTCHAR C365
ENCODING 245
SWIDTH 401 0
DWIDTH 8 0
BBX 8 16 0 -1
BITMAP
00
00
7C
60
78
60
60
00
1F
18
1E
03
1E
00
00
00
ENDCHAR

STARTCHAR C366
ENCODING 246
SWIDTH 401 0
DWIDTH 8 0
BBX 8 16 0 -1
BITMAP
00
00
7C
60
78
60
60
00
0E
18
1E
1B
0E
00
00
00
ENDCHAR

STARTCHAR C367
ENCODING 247
SWIDTH 401 0
DWIDTH 8 0
BBX 8 16 0 -1
BITMAP
00
00
7C
60
78
60
60
00
1F
03
06
0C
18
00
00
00
ENDCHAR

STARTCHAR C370
ENCODING 248
SWIDTH 401 0
DWIDTH 8 0
BBX 8 16 0 -1
BITMAP
00
00
7C
60
78
60
60
00
0E
1B
0E
1B
0E
00
00
00
ENDCHAR

STARTCHAR C371
ENCODING 249
SWIDTH 401 0
DWIDTH 8 0
BBX 8 16 0 -1
BITMAP
00
00
7C
60
78
60
60
00
0E
1B
0F
03
0E
00
00
00
ENDCHAR

STARTCHAR C372
ENCODING 250
SWIDTH 401 0
DWIDTH 8 0
BBX 8 16 0 -1
BITMAP
00
00
7C
60
78
60
60
00
0E
1B
1F
1B
1B
00
00
00
ENDCHAR

STARTCHAR C373
ENCODING 251
SWIDTH 401 0
DWIDTH 8 0
BBX 8 16 0 -1
BITMAP
00
00
7C
60
78
60
60
00
1E
1B
1E
1B
1E
00
00
00
ENDCHAR

STARTCHAR C374
ENCODING 252
SWIDTH 401 0
DWIDTH 8 0
BBX 8 16 0 -1
BITMAP
00
00
7C
60
78
60
60
00
0F
18
18
18
0F
00
00
00
ENDCHAR

STARTCHAR C375
ENCODING 253
SWIDTH 401 0
DWIDTH 8 0
BBX 8 16 0 -1
BITMAP
00
00
7C
60
78
60
60
00
1E
1B
1B
1B
1E
00
00
00
ENDCHAR

STARTCHAR C376
ENCODING 254
SWIDTH 401 0
DWIDTH 8 0
BBX 8 16 0 -1
BITMAP
00
00
7C
60
78
60
60
00
1F
18
1E
18
1F
00
00
00
ENDCHAR

STARTCHAR C377
ENCODING 255
SWIDTH 401 0
DWIDTH 8 0
BBX 8 16 0 -1
BITMAP
00
00
7C
60
78
60
60
00
1F
18
1E
18
18
00
00
00
ENDCHAR
ENDFONT
